<?xml version="1.0" encoding="UTF-8"?>
<svg width="29px" height="29px" viewBox="0 0 29 29" version="1.1" xmlns="http://www.w3.org/2000/svg" xmlns:xlink="http://www.w3.org/1999/xlink">
    <title>29*29</title>
    <defs>
        <rect id="path-1" x="0" y="0" width="29" height="29"></rect>
        <rect id="path-3" x="0" y="0" width="27.1489362" height="29"></rect>
    </defs>
    <g id="页面-1" stroke="none" stroke-width="1" fill="none" fill-rule="evenodd">
        <g id="画板" transform="translate(-181.000000, -309.000000)">
            <g id="29*29" transform="translate(181.000000, 309.000000)">
                <mask id="mask-2" fill="white">
                    <use xlink:href="#path-1"></use>
                </mask>
                <use fill-opacity="0" fill="#A65454" xlink:href="#path-1"></use>
                <g id="logo蓝色" mask="url(#mask-2)">
                    <g transform="translate(0.500000, 0.000000)" id="路径-5-+-路径-5-+-路径-5-+-路径-5-+-形状结合-+-路径-5蒙版">
                        <mask id="mask-4" fill="white">
                            <use xlink:href="#path-3"></use>
                        </mask>
                        <use id="蒙版" fill-opacity="0" fill="#D8D8D8" xlink:href="#path-3"></use>
                        <path d="M13.5753696,13.3249283 L18.8369159,16.36244 C19.5009418,16.7457848 19.7284788,17.5948465 19.345134,18.2588725 C19.2232764,18.469953 19.0479963,18.645233 18.8369159,18.7670906 L15.0407519,20.9586312 C14.1339642,21.4821234 13.0167836,21.4821086 12.1100097,20.9585923 L6.23205988,17.5650204 L13.5753696,13.3249283 Z M13.5754214,16.3528474 L11.4764693,17.5648314 L13.4211613,18.6875682 C13.5086571,18.7380829 13.6147633,18.7422938 13.7053619,18.7002003 L13.7296605,18.6875723 L15.4200014,17.7116314 C15.501158,17.6647745 15.5289635,17.5609991 15.4821066,17.4798424 C15.4672131,17.4540467 15.4457916,17.4326261 15.4199952,17.4177337 L13.5754214,16.3528474 Z" id="形状结合" fill="#41B349" fill-rule="nonzero" mask="url(#mask-4)"></path>
                        <polygon id="路径-5" fill="#6CA3FF" mask="url(#mask-4)" points="3.88826358e-15 7.83709571 13.5744681 -5.41362357e-05 18.6640133 2.93948932 13.5744681 5.87814777 5.09132702 10.7768157 0 13.7146809"></polygon>
                        <polygon id="路径-5" fill="#5695FF" mask="url(#mask-4)" points="0 7.83709571 0 21.1618192 5.09132702 24.0880263 5.09132702 18.2234173 5.09132702 10.7768157"></polygon>
                        <polygon id="路径-5" fill="#5695FF" mask="url(#mask-4)" points="13.5744681 5.87814777 13.5744681 -5.41362357e-05 27.1489362 7.83730284 22.0585106 10.7768157"></polygon>
                        <polygon id="路径-5" fill="#4088FF" mask="url(#mask-4)" points="5.09132702 18.2234173 0 21.1618192 13.5753696 29 18.6652467 26.0605648 13.5754985 23.1223041"></polygon>
                        <polygon id="路径-5" fill="#2677FF" mask="url(#mask-4)" points="22.0594121 18.222683 13.5753696 23.1223041 13.5753696 29 27.1498377 21.163288"></polygon>
                    </g>
                </g>
            </g>
        </g>
    </g>
</svg>