<?xml version="1.0" encoding="UTF-8"?>
<svg width="117px" height="30px" viewBox="0 0 117 30" version="1.1" xmlns="http://www.w3.org/2000/svg" xmlns:xlink="http://www.w3.org/1999/xlink">
    <title>白色</title>
    <defs>
        <rect id="path-1" x="0" y="0" width="28.0851064" height="30"></rect>
    </defs>
    <g id="页面-1" stroke="none" stroke-width="1" fill="none" fill-rule="evenodd">
        <g id="白色">
            <g id="路径-+-形状结合-+-路径-5-+-路径-5-+-路径-5-+-路径-5-+-路径-5-+-形状结合蒙版">
                <mask id="mask-2" fill="white">
                    <use xlink:href="#path-1"></use>
                </mask>
                <use id="蒙版" fill-opacity="0" fill="#D8D8D8" xlink:href="#path-1"></use>
                <polygon id="路径" fill="#FFFFFF" opacity="0.5" mask="url(#mask-2)" points="5.555655e-14 8.10734039 14.0419274 0.000159574468 28.0841738 8.10755466 22.8183912 11.14843 14.0420869 6.08084253 5.26671514 11.14843 5.26671514 18.851811 14.0430195 23.919625 22.8193238 18.8511073 28.0851064 21.8930565 14.0430195 30 0 21.8915371"></polygon>
                <path d="M14.0579583,23.9163281 L14.0579583,29.989077 L14.042597,29.9960214 L14.0270928,29.989077 L14.0270928,23.9163281 L14.0434858,23.9235087 L14.0579583,23.9163281 Z M5.25744262,18.839705 L5.26175235,18.8553343 L5.27559221,18.8648668 L0.0202015459,21.899068 L0.00204103961,21.8883717 L0.00204103961,21.8739125 L5.25744262,18.839705 Z M0.0199591421,8.10166871 L5.27705623,11.1367731 L5.26157747,11.146073 L5.26179437,11.1632074 L0.00398108297,8.12845595 L0.00460031865,8.11108442 L0.0199591421,8.10166871 Z M14.0572717,0.0121253291 L14.0579583,6.08084472 L14.0270928,6.08084472 L14.0264061,0.0121253291 L14.0572717,0.0121253291 Z" id="形状结合" fill="#FFFFFF" opacity="0.68" mask="url(#mask-2)"></path>
                <polygon id="路径-5" fill="#FFFFFF" opacity="0.519999981" mask="url(#mask-2)" points="4.02234164e-15 8.10734039 14.0425532 -5.60030024e-05 14.0425532 6.08084253 5.26689002 11.14843"></polygon>
                <polygon id="路径-5" fill="#FFFFFF" opacity="0.639999986" mask="url(#mask-2)" points="-7.93691354e-14 8.10734039 -7.93691354e-14 21.8915371 5.26689002 18.851811 5.26689002 11.14843"></polygon>
                <polygon id="路径-5" fill="#FFFFFF" opacity="0.779999971" mask="url(#mask-2)" points="14.0425532 6.08084253 14.0425532 -5.60030024e-05 28.0851064 8.10755466 22.8191489 11.14843"></polygon>
                <polygon id="路径-5" fill="#FFFFFF" opacity="0.75999999" mask="url(#mask-2)" points="5.26689002 18.851811 1.02046031e-14 21.8915371 14.0434858 30 19.3088759 26.959205 14.0436192 23.919625"></polygon>
                <polygon id="路径-5" fill="#FFFFFF" mask="url(#mask-2)" points="22.8200815 18.8510513 14.0434858 23.919625 14.0434858 30 28.086039 21.8930565"></polygon>
                <path d="M14.0434858,13.7844086 L19.4864647,16.926662 C20.1733881,17.3232256 20.4087712,18.2015654 20.0122076,18.8884888 C19.886148,19.1068479 19.7048238,19.2881721 19.4864647,19.4142317 L15.5593985,21.6813426 C14.6213422,22.2228863 13.4656382,22.2228709 12.5275962,21.6813024 L6.4469585,18.1707108 L14.0434858,13.7844086 Z M14.0435394,16.9167387 L11.8722096,18.1705153 L13.88396,19.3319671 C13.9744728,19.3842237 14.0842379,19.3885798 14.1779606,19.3450348 L14.2030971,19.3319713 L15.9517256,18.3223773 C16.0356807,18.2739047 16.064445,18.1665508 16.0159724,18.0825956 C16.0005653,18.0559104 15.9784051,18.0337511 15.9517192,18.0183452 L14.0435394,16.9167387 Z" id="形状结合" fill="#FFFFFF" fill-rule="nonzero" mask="url(#mask-2)"></path>
            </g>
            <path d="M47.2340426,7.9787234 L47.2340426,10.8510638 L36.5425532,10.8510638 C36.2781616,10.8510638 36.0638298,11.0653956 36.0638298,11.3297872 L36.0638298,18.6702128 C36.0638298,18.9346044 36.2781616,19.1489362 36.5425532,19.1489362 L47.2340426,19.1489362 L47.2340426,22.0212766 L35.7446809,22.0212766 C34.3345921,22.0212766 33.1914894,20.8781738 33.1914894,19.4680851 L33.1914894,10.5319149 C33.1914894,9.12182617 34.3345921,7.9787234 35.7446809,7.9787234 L47.2340426,7.9787234 Z M61.9148936,7.9787234 C63.3249823,7.9787234 64.4680851,9.12182617 64.4680851,10.5319149 L64.4680851,19.4680851 C64.4680851,20.8781738 63.3249823,22.0212766 61.9148936,22.0212766 L52.9787234,22.0212766 C51.5686347,22.0212766 50.4255319,20.8781738 50.4255319,19.4680851 L50.4255319,10.5319149 C50.4255319,9.12182617 51.5686347,7.9787234 52.9787234,7.9787234 L61.9148936,7.9787234 Z M81.7021277,2.55319149 L81.7021277,22.0212766 L70.212766,22.0212766 C68.8026772,22.0212766 67.6595745,20.8781738 67.6595745,19.4680851 L67.6595745,10.5319149 C67.6595745,9.12182617 68.8026772,7.9787234 70.212766,7.9787234 L77.0744681,7.9787234 L77.0744681,10.8510638 L71.0106383,10.8510638 C70.7462467,10.8510638 70.5319149,11.0653956 70.5319149,11.3297872 L70.5319149,18.6702128 C70.5319149,18.9346044 70.7462467,19.1489362 71.0106383,19.1489362 L78.8297872,19.1489362 L78.8297872,2.55319149 L81.7021277,2.55319149 Z M87.7659574,16.4361702 L87.7659574,18.6702128 C87.7659574,18.9346044 87.9802892,19.1489362 88.2446809,19.1489362 L98.9361702,19.1489362 L98.9361702,22.0212766 L87.4468085,22.0212766 C86.0367198,22.0212766 84.893617,20.8781738 84.893617,19.4680851 L84.893617,10.5319149 C84.893617,9.12182617 86.0367198,7.9787234 87.4468085,7.9787234 L96.3829787,7.9787234 C97.7930674,7.9787234 98.9361702,9.12182617 98.9361702,10.5319149 L98.9361702,16.4361702 L87.7659574,16.4361702 Z M113.617021,7.9787234 C115.02711,7.9787234 116.170213,9.12182617 116.170213,10.5319149 L116.170213,11.6489362 L113.297872,11.6489362 L113.297872,11.3297872 C113.297872,11.0653956 113.083541,10.8510638 112.819149,10.8510638 L105.478723,10.8510638 C105.214332,10.8510638 105,11.0653956 105,11.3297872 L105,12.9255319 C105,13.1899236 105.214332,13.4042553 105.478723,13.4042553 L113.617021,13.4042553 C115.02711,13.4042553 116.170213,14.5473581 116.170213,15.9574468 L116.170213,19.4680851 C116.170213,20.8781738 115.02711,22.0212766 113.617021,22.0212766 L104.680851,22.0212766 C103.270762,22.0212766 102.12766,20.8781738 102.12766,19.4680851 L102.12766,18.0319149 L105,18.0319149 L105,18.6702128 C105,18.9346044 105.214332,19.1489362 105.478723,19.1489362 L112.819149,19.1489362 C113.083541,19.1489362 113.297872,18.9346044 113.297872,18.6702128 L113.297872,16.7553191 C113.297872,16.4909275 113.083541,16.2765957 112.819149,16.2765957 L104.680851,16.2765957 C103.270762,16.2765957 102.12766,15.133493 102.12766,13.7234043 L102.12766,10.5319149 C102.12766,9.12182617 103.270762,7.9787234 104.680851,7.9787234 L113.617021,7.9787234 Z M61.1170213,10.8510638 L53.7765957,10.8510638 C53.5122041,10.8510638 53.2978723,11.0653956 53.2978723,11.3297872 L53.2978723,18.6702128 C53.2978723,18.9346044 53.5122041,19.1489362 53.7765957,19.1489362 L61.1170213,19.1489362 C61.3814129,19.1489362 61.5957447,18.9346044 61.5957447,18.6702128 L61.5957447,11.3297872 C61.5957447,11.0653956 61.3814129,10.8510638 61.1170213,10.8510638 Z M95.5851064,10.8510638 L88.2446809,10.8510638 C87.9802892,10.8510638 87.7659574,11.0653956 87.7659574,11.3297872 L87.7659574,13.5638298 L96.0638298,13.5638298 L96.0638298,11.3297872 C96.0638298,11.0653956 95.849498,10.8510638 95.5851064,10.8510638 Z" id="形状" fill="#FFFFFF" fill-rule="nonzero"></path>
        </g>
    </g>
</svg>